<svg xmlns="http://www.w3.org/2000/svg" xmlns:xlink="http://www.w3.org/1999/xlink" width="500" zoomAndPan="magnify" viewBox="0 0 375 374.999991" height="500" preserveAspectRatio="xMidYMid meet" version="1.0"><defs><g/><clipPath id="9a612222f1"><path d="M 91 117 L 165 117 L 165 193.613281 L 91 193.613281 Z M 91 117 " clip-rule="nonzero"/></clipPath><clipPath id="3568fb32f6"><path d="M 91 125 L 158 125 L 158 193.613281 L 91 193.613281 Z M 91 125 " clip-rule="nonzero"/></clipPath><clipPath id="02646d037a"><path d="M 142 96.113281 L 229 96.113281 L 229 188 L 142 188 Z M 142 96.113281 " clip-rule="nonzero"/></clipPath></defs><g clip-path="url(#9a612222f1)"><path fill="#ff2c19" d="M 146.214844 117.726562 L 100.273438 122.09375 C 93.855469 122.703125 89.730469 129.714844 91.414062 137.15625 L 100.21875 176.070312 C 101.875 183.390625 108.449219 187.980469 114.46875 186.023438 L 133.523438 179.828125 C 135.542969 179.171875 137.777344 179.675781 139.574219 181.1875 L 156.113281 193.230469 C 156.628906 193.605469 157.230469 193.105469 157.074219 192.433594 L 153.316406 176.199219 C 152.976562 174.726562 153.652344 173.285156 154.863281 172.890625 L 158.371094 171.75 C 163.054688 170.226562 165.660156 164.652344 164.34375 158.964844 L 156.863281 126.652344 C 155.582031 121.117188 150.996094 117.269531 146.214844 117.726562 " fill-opacity="1" fill-rule="nonzero"/></g><g clip-path="url(#3568fb32f6)"><path fill="#e62816" d="M 157.074219 192.433594 L 155.941406 187.535156 L 138.679688 175.554688 C 137.222656 174.542969 135.371094 174.273438 133.683594 174.820312 L 117.3125 180.144531 C 107.785156 183.300781 105.695312 179.75 103.058594 170.191406 L 94.257812 131.277344 C 93.785156 129.1875 93.769531 127.136719 94.132812 125.246094 C 91.558594 128.105469 90.371094 132.550781 91.414062 137.15625 L 100.21875 176.070312 C 101.875 183.390625 108.449219 187.980469 114.46875 186.023438 L 133.523438 179.828125 C 135.539062 179.171875 137.777344 179.675781 139.574219 181.1875 L 156.113281 193.230469 C 156.628906 193.605469 157.230469 193.105469 157.074219 192.433594 " fill-opacity="1" fill-rule="nonzero"/></g><path fill="#25bf6a" d="M 274.730469 120.664062 L 225.109375 119.136719 C 220.054688 118.980469 215.558594 123.109375 214.675781 128.722656 L 209.511719 161.480469 C 208.605469 167.246094 211.800781 172.65625 216.84375 173.882812 L 220.621094 174.804688 C 221.925781 175.125 222.75 176.523438 222.515625 178.015625 L 220.710938 189.46875 C 220.546875 190.511719 221.5 191.28125 222.347656 190.792969 L 238.34375 181.367188 C 239.933594 180.328125 241.808594 179.972656 243.59375 180.40625 L 265.09375 185.648438 C 271.042969 187.097656 277.023438 182.511719 278.058594 175.703125 L 284.414062 133.96875 C 285.464844 127.050781 280.960938 120.855469 274.730469 120.664062 " fill-opacity="1" fill-rule="nonzero"/><path fill="#20a65c" d="M 281.027344 123.332031 C 281.597656 125.125 281.777344 127.121094 281.460938 129.183594 L 275.109375 170.917969 C 273.925781 179.503906 270.175781 182.992188 262.144531 180.859375 L 243.308594 176.269531 C 241.597656 175.851562 239.792969 176.117188 238.273438 177.003906 L 221.089844 187.070312 L 220.710938 189.46875 C 220.546875 190.511719 221.5 191.28125 222.347656 190.792969 L 238.34375 181.367188 C 239.933594 180.328125 241.808594 179.972656 243.59375 180.40625 L 265.09375 185.648438 C 271.042969 187.097656 277.023438 182.511719 278.058594 175.703125 L 284.414062 133.96875 C 285.054688 129.757812 283.636719 125.816406 281.027344 123.332031 " fill-opacity="1" fill-rule="nonzero"/><path fill="#e3e3e3" d="M 153.570312 174.015625 C 153.855469 173.480469 154.300781 173.074219 154.863281 172.890625 L 154.886719 172.882812 C 154.175781 173.148438 153.933594 173.449219 153.570312 174.015625 M 155.371094 172.726562 L 155.378906 172.722656 L 155.371094 172.722656 C 155.371094 172.722656 155.371094 172.726562 155.371094 172.726562 M 156.492188 172.359375 L 158.371094 171.75 C 163.054688 170.226562 165.660156 164.652344 164.34375 158.964844 L 156.863281 126.652344 C 155.890625 122.449219 153.015625 119.222656 149.59375 118.109375 L 223.980469 119.171875 C 219.398438 119.609375 215.492188 123.53125 214.675781 128.722656 L 209.511719 161.480469 C 209.019531 164.621094 209.742188 167.652344 211.316406 169.960938 L 156.492188 172.359375 M 213.15625 172.007812 C 212.496094 171.457031 211.910156 170.820312 211.417969 170.109375 C 211.917969 170.820312 212.503906 171.460938 213.15625 172.007812 M 231.246094 119.324219 L 228.296875 119.234375 L 231.246094 119.324219 M 140.207031 118.296875 L 143.144531 118.015625 L 140.207031 118.296875 " fill-opacity="1" fill-rule="nonzero"/><path fill="#e32716" d="M 153.570312 174.015625 C 149.730469 171.300781 147.023438 166.8125 146.46875 161.53125 L 140.207031 118.296875 L 143.144531 118.015625 L 149.59375 118.109375 C 153.015625 119.222656 155.890625 122.449219 156.863281 126.652344 L 164.34375 158.964844 C 165.660156 164.652344 163.054688 170.226562 158.371094 171.75 L 156.492188 172.359375 L 156.480469 172.359375 L 155.378906 172.722656 L 155.371094 172.726562 C 155.1875 172.777344 155.027344 172.828125 154.886719 172.882812 L 154.863281 172.890625 C 154.300781 173.074219 153.855469 173.480469 153.570312 174.015625 " fill-opacity="1" fill-rule="nonzero"/><path fill="#21aa5e" d="M 213.996094 172.636719 L 213.785156 172.488281 C 213.570312 172.335938 213.359375 172.175781 213.15625 172.007812 C 212.503906 171.460938 211.917969 170.820312 211.417969 170.109375 C 211.382812 170.0625 211.351562 170.011719 211.316406 169.960938 C 209.742188 167.652344 209.019531 164.621094 209.511719 161.480469 L 214.675781 128.722656 C 215.492188 123.53125 219.398438 119.609375 223.980469 119.171875 L 228.296875 119.234375 L 231.246094 119.324219 C 231.242188 119.542969 231.238281 119.753906 231.238281 119.949219 L 231.238281 156.875 C 231.238281 160.707031 229.9375 164.375 227.566406 167.207031 C 225.136719 170.109375 221.816406 171.878906 218.210938 172.1875 L 213.996094 172.636719 " fill-opacity="1" fill-rule="nonzero"/><g clip-path="url(#02646d037a)"><path fill="#ffbb02" d="M 228.453125 106.421875 C 228.183594 100.566406 223.058594 96.117188 217.195312 96.589844 L 164.105469 97.617188 C 162.269531 97.652344 153.582031 97.851562 151.871094 98.503906 C 146.667969 100.484375 144.1875 104.566406 143.214844 109.355469 C 142.679688 111.964844 142.648438 114.648438 143.039062 117.28125 L 149.398438 161.167969 C 150.164062 168.695312 156.183594 174.386719 163.175781 173.808594 L 183.226562 171.917969 C 183.914062 171.859375 184.546875 172.339844 184.746094 173.074219 L 190.574219 185.53125 C 190.683594 185.765625 190.773438 186.003906 190.871094 186.242188 C 191.53125 187.898438 193.703125 188.011719 194.460938 186.3125 L 200.929688 171.839844 C 201.15625 171.332031 201.601562 170.992188 202.109375 170.941406 L 217.929688 169.261719 C 223.773438 168.777344 228.289062 163.375 228.289062 156.875 L 228.289062 119.949219 C 228.289062 116.898438 228.683594 111.386719 228.453125 106.421875 " fill-opacity="1" fill-rule="nonzero"/></g><path fill="#e8aa02" d="M 182.1875 169.890625 C 181.988281 169.15625 181.355469 168.675781 180.667969 168.734375 L 160.613281 170.621094 C 157.128906 170.914062 153.882812 169.640625 151.410156 167.359375 C 153.886719 171.558594 158.292969 174.210938 163.175781 173.808594 L 183.140625 171.925781 L 182.1875 169.890625 " fill-opacity="1" fill-rule="nonzero"/><path fill="#e8aa02" d="M 228.453125 106.421875 C 228.316406 103.417969 226.898438 100.78125 224.761719 98.996094 C 225.421875 100.269531 225.824219 101.703125 225.894531 103.234375 C 226.125 108.203125 225.730469 113.714844 225.730469 116.765625 L 225.730469 153.691406 C 226.003906 161.765625 222.480469 165.765625 215.371094 166.078125 L 199.550781 167.753906 C 199.042969 167.808594 198.597656 168.148438 198.375 168.65625 L 191.902344 183.125 C 191.515625 183.996094 190.757812 184.390625 190.019531 184.347656 L 190.574219 185.53125 C 190.683594 185.765625 190.773438 186.003906 190.871094 186.242188 C 191.53125 187.898438 193.703125 188.011719 194.460938 186.3125 L 200.929688 171.839844 C 201.15625 171.332031 201.601562 170.992188 202.109375 170.941406 L 217.929688 169.261719 C 223.773438 168.777344 228.289062 163.375 228.289062 156.875 L 228.289062 119.949219 C 228.289062 116.898438 228.683594 111.386719 228.453125 106.421875 " fill-opacity="1" fill-rule="nonzero"/><path fill="#ffffff" d="M 199.441406 116.175781 C 196.726562 113.785156 193.058594 112.132812 188.464844 112.132812 C 184.097656 112.132812 180.585938 113.769531 177.902344 116.132812 C 176.464844 117.398438 175.382812 118.808594 174.65625 120.363281 C 173.582031 122.65625 175.285156 125.285156 177.824219 125.285156 C 179.535156 125.285156 181.113281 124.328125 181.875 122.800781 C 182.367188 121.816406 182.980469 121.015625 183.722656 120.386719 C 185.089844 119.234375 186.789062 118.65625 188.820312 118.65625 C 190.925781 118.65625 192.601562 119.210938 193.84375 120.316406 C 195.089844 121.421875 195.710938 122.753906 195.710938 124.300781 C 195.710938 125.417969 195.359375 126.441406 194.65625 127.367188 C 194.203125 127.953125 192.804688 129.191406 190.472656 131.082031 C 188.402344 132.757812 186.945312 134.285156 186.097656 135.664062 C 185.929688 135.9375 185.789062 136.21875 185.664062 136.511719 C 185.039062 137.984375 185.109375 142.058594 184.949219 145.304688 C 184.84375 147.386719 185.976562 149.136719 188.066406 149.167969 L 188.59375 149.167969 C 190.585938 149.195312 192.242188 147.644531 192.34375 145.660156 C 192.480469 142.960938 192.214844 139.859375 192.480469 139.308594 C 192.886719 138.457031 193.933594 137.332031 195.625 135.933594 C 198.890625 133.226562 201.019531 131.089844 202.015625 129.523438 C 203.011719 127.953125 203.511719 126.289062 203.511719 124.53125 C 203.511719 121.351562 202.152344 118.570312 199.441406 116.175781 " fill-opacity="1" fill-rule="nonzero"/><path fill="#ffffff" d="M 184.585938 157.222656 C 184.585938 154.835938 186.527344 152.902344 188.917969 152.902344 L 188.921875 152.902344 C 191.3125 152.902344 193.253906 154.835938 193.253906 157.222656 C 193.253906 159.605469 191.3125 161.539062 188.921875 161.539062 L 188.917969 161.539062 C 186.527344 161.539062 184.585938 159.605469 184.585938 157.222656 " fill-opacity="1" fill-rule="nonzero"/><path fill="#ffffff" d="M 263.015625 137.019531 C 261.570312 134.320312 259.148438 131.933594 255.503906 130.582031 C 252.039062 129.296875 248.765625 129.5625 245.933594 130.648438 C 244.417969 131.226562 243.144531 132.027344 242.105469 133.050781 C 240.570312 134.554688 241.144531 137.140625 243.160156 137.886719 C 244.519531 138.390625 246.054688 138.097656 247.113281 137.109375 C 247.792969 136.472656 248.519531 136.015625 249.292969 135.738281 C 250.722656 135.222656 252.238281 135.265625 253.851562 135.863281 C 255.523438 136.484375 256.691406 137.414062 257.347656 138.660156 C 258.007812 139.902344 258.109375 141.140625 257.648438 142.371094 C 257.316406 143.257812 256.734375 143.964844 255.902344 144.492188 C 255.367188 144.824219 253.894531 145.398438 251.480469 146.210938 C 249.339844 146.933594 247.730469 147.714844 246.648438 148.5625 C 246.4375 148.726562 246.238281 148.910156 246.054688 149.105469 C 245.121094 150.09375 243.96875 153.34375 242.878906 155.875 C 242.179688 157.496094 242.558594 159.21875 244.210938 159.855469 L 244.628906 160.011719 C 246.203125 160.621094 247.972656 159.875 248.644531 158.332031 C 249.554688 156.230469 250.257812 153.691406 250.632812 153.332031 C 251.210938 152.773438 252.375 152.191406 254.132812 151.578125 C 257.523438 150.390625 259.847656 149.320312 261.105469 148.371094 C 262.363281 147.417969 263.25 146.242188 263.773438 144.847656 C 264.714844 142.324219 264.460938 139.714844 263.015625 137.019531 " fill-opacity="1" fill-rule="nonzero"/><path fill="#ffffff" d="M 239.058594 165.226562 C 239.765625 163.332031 241.878906 162.367188 243.777344 163.074219 C 245.679688 163.777344 246.644531 165.882812 245.9375 167.777344 C 245.230469 169.667969 243.117188 170.632812 241.21875 169.929688 C 239.316406 169.222656 238.351562 167.117188 239.058594 165.226562 " fill-opacity="1" fill-rule="nonzero"/><path fill="#ffffff" d="M 129.183594 131.535156 C 126.703125 130.558594 123.746094 130.335938 120.570312 131.488281 C 117.550781 132.582031 115.53125 134.597656 114.273438 136.902344 C 113.597656 138.140625 113.203125 139.386719 113.09375 140.644531 C 112.929688 142.5 114.773438 143.890625 116.53125 143.253906 C 117.714844 142.824219 118.5625 141.769531 118.707031 140.519531 C 118.796875 139.71875 119.019531 139.007812 119.375 138.386719 C 120.027344 137.246094 121.058594 136.421875 122.464844 135.914062 C 123.921875 135.386719 125.21875 135.347656 126.359375 135.800781 C 127.5 136.253906 128.265625 137.019531 128.65625 138.089844 C 128.9375 138.863281 128.953125 139.660156 128.699219 140.476562 C 128.535156 140.996094 127.882812 142.203125 126.742188 144.09375 C 125.734375 145.773438 125.113281 147.195312 124.875 148.363281 C 124.828125 148.589844 124.800781 148.824219 124.789062 149.058594 C 124.730469 150.234375 125.804688 153.03125 126.515625 155.320312 C 126.96875 156.785156 128.195312 157.714844 129.648438 157.207031 L 130.011719 157.078125 C 131.398438 156.597656 132.152344 155.109375 131.722656 153.710938 C 131.132812 151.808594 130.167969 149.730469 130.210938 149.28125 C 130.277344 148.59375 130.71875 147.550781 131.535156 146.160156 C 133.109375 143.46875 134.042969 141.457031 134.335938 140.121094 C 134.628906 138.785156 134.554688 137.511719 134.109375 136.292969 C 133.308594 134.09375 131.664062 132.507812 129.183594 131.535156 " fill-opacity="1" fill-rule="nonzero"/><path fill="#ffffff" d="M 129.273438 163.65625 C 128.671875 162.003906 129.523438 160.179688 131.183594 159.582031 L 131.183594 159.578125 C 132.839844 158.980469 134.667969 159.832031 135.269531 161.480469 C 135.875 163.132812 135.019531 164.957031 133.363281 165.554688 C 131.707031 166.15625 129.875 165.304688 129.273438 163.65625 " fill-opacity="1" fill-rule="nonzero"/><g fill="#ffffff" fill-opacity="1"><g transform="translate(64.707934, 253.887315)"><g><path d="M 57.265625 -2.15625 L 54.171875 -4.78125 C 51.046875 -2.78125 47.976562 -1.328125 44.96875 -0.421875 C 41.96875 0.484375 38.804688 0.9375 35.484375 0.9375 C 30.984375 0.9375 26.742188 0.09375 22.765625 -1.59375 C 18.796875 -3.28125 15.335938 -5.578125 12.390625 -8.484375 C 9.453125 -11.398438 7.117188 -14.828125 5.390625 -18.765625 C 3.671875 -22.710938 2.8125 -26.910156 2.8125 -31.359375 C 2.8125 -35.804688 3.65625 -39.984375 5.34375 -43.890625 C 7.039062 -47.804688 9.359375 -51.21875 12.296875 -54.125 C 15.242188 -57.039062 18.6875 -59.34375 22.625 -61.03125 C 26.570312 -62.71875 30.765625 -63.5625 35.203125 -63.5625 C 39.710938 -63.5625 43.9375 -62.703125 47.875 -60.984375 C 51.820312 -59.265625 55.265625 -56.929688 58.203125 -53.984375 C 61.148438 -51.046875 63.484375 -47.601562 65.203125 -43.65625 C 66.921875 -39.71875 67.78125 -35.492188 67.78125 -30.984375 C 67.78125 -28.234375 67.46875 -25.648438 66.84375 -23.234375 C 66.21875 -20.828125 65.1875 -18.242188 63.75 -15.484375 L 66.5625 -12.953125 L 67.78125 -11.921875 C 69.789062 -10.109375 70.796875 -8.171875 70.796875 -6.109375 C 70.796875 -4.097656 70.101562 -2.390625 68.71875 -0.984375 C 67.34375 0.421875 65.65625 1.125 63.65625 1.125 C 61.90625 1.125 60.1875 0.375 58.5 -1.125 Z M 35.390625 -49.296875 C 32.890625 -49.296875 30.539062 -48.820312 28.34375 -47.875 C 26.15625 -46.9375 24.234375 -45.65625 22.578125 -44.03125 C 20.921875 -42.40625 19.625 -40.492188 18.6875 -38.296875 C 17.75 -36.109375 17.28125 -33.796875 17.28125 -31.359375 C 17.28125 -28.859375 17.765625 -26.507812 18.734375 -24.3125 C 19.703125 -22.125 21 -20.203125 22.625 -18.546875 C 24.25 -16.890625 26.171875 -15.585938 28.390625 -14.640625 C 30.617188 -13.703125 32.984375 -13.234375 35.484375 -13.234375 C 37.929688 -13.234375 40.25 -13.703125 42.4375 -14.640625 C 44.625 -15.585938 46.515625 -16.875 48.109375 -18.5 C 49.710938 -20.125 50.984375 -22.015625 51.921875 -24.171875 C 52.859375 -26.335938 53.328125 -28.671875 53.328125 -31.171875 C 53.328125 -33.609375 52.859375 -35.9375 51.921875 -38.15625 C 50.984375 -40.382812 49.679688 -42.3125 48.015625 -43.9375 C 46.359375 -45.5625 44.453125 -46.859375 42.296875 -47.828125 C 40.140625 -48.804688 37.835938 -49.296875 35.390625 -49.296875 Z M 35.390625 -49.296875 "/></g></g></g><g fill="#ffffff" fill-opacity="1"><g transform="translate(132.856723, 253.887315)"><g><path d="M 33.140625 -21.96875 L 33.140625 -38.125 C 33.203125 -40.25 33.796875 -41.9375 34.921875 -43.1875 C 36.054688 -44.4375 37.5625 -45.0625 39.4375 -45.0625 C 41.25 -45.0625 42.734375 -44.421875 43.890625 -43.140625 C 45.046875 -41.859375 45.625 -40.1875 45.625 -38.125 L 45.625 -20.9375 C 45.625 -17.875 45.28125 -15.210938 44.59375 -12.953125 C 43.90625 -10.703125 42.78125 -8.609375 41.21875 -6.671875 C 39.34375 -4.285156 37.023438 -2.421875 34.265625 -1.078125 C 31.515625 0.265625 28.632812 0.9375 25.625 0.9375 C 22.125 0.9375 18.789062 0.046875 15.625 -1.734375 C 12.46875 -3.515625 9.953125 -5.941406 8.078125 -9.015625 C 7.203125 -10.453125 6.53125 -12.234375 6.0625 -14.359375 C 5.59375 -16.492188 5.359375 -18.78125 5.359375 -21.21875 L 5.359375 -38.125 C 5.421875 -40.25 6 -41.9375 7.09375 -43.1875 C 8.1875 -44.4375 9.671875 -45.0625 11.546875 -45.0625 C 13.421875 -45.0625 14.9375 -44.421875 16.09375 -43.140625 C 17.257812 -41.859375 17.84375 -40.1875 17.84375 -38.125 L 17.84375 -22.34375 C 17.84375 -20.46875 17.90625 -19.125 18.03125 -18.3125 C 18.15625 -17.5 18.375 -16.71875 18.6875 -15.96875 C 19.25 -14.707031 20.171875 -13.65625 21.453125 -12.8125 C 22.734375 -11.96875 24.09375 -11.546875 25.53125 -11.546875 C 27.726562 -11.546875 29.546875 -12.328125 30.984375 -13.890625 C 32.421875 -15.460938 33.140625 -17.375 33.140625 -19.625 Z M 33.140625 -21.96875 "/></g></g></g><g fill="#ffffff" fill-opacity="1"><g transform="translate(180.354146, 253.887315)"><g><path d="M 5.828125 -7.703125 L 5.828125 -38.125 C 5.890625 -40.25 6.484375 -41.9375 7.609375 -43.1875 C 8.734375 -44.4375 10.203125 -45.0625 12.015625 -45.0625 C 13.890625 -45.0625 15.40625 -44.421875 16.5625 -43.140625 C 17.726562 -41.859375 18.3125 -40.1875 18.3125 -38.125 L 18.3125 -6.296875 C 18.25 -4.160156 17.648438 -2.46875 16.515625 -1.21875 C 15.390625 0.03125 13.921875 0.65625 12.109375 0.65625 C 10.234375 0.65625 8.71875 0.015625 7.5625 -1.265625 C 6.40625 -2.546875 5.828125 -4.222656 5.828125 -6.296875 Z M 12.015625 -62.71875 C 14.078125 -62.71875 15.828125 -62 17.265625 -60.5625 C 18.710938 -59.125 19.4375 -57.367188 19.4375 -55.296875 C 19.4375 -53.234375 18.695312 -51.46875 17.21875 -50 C 15.75 -48.53125 13.953125 -47.796875 11.828125 -47.796875 C 10.828125 -47.796875 9.875 -48 8.96875 -48.40625 C 8.0625 -48.8125 7.265625 -49.34375 6.578125 -50 C 5.890625 -50.65625 5.335938 -51.421875 4.921875 -52.296875 C 4.515625 -53.171875 4.3125 -54.109375 4.3125 -55.109375 C 4.3125 -57.304688 5.046875 -59.125 6.515625 -60.5625 C 7.992188 -62 9.828125 -62.71875 12.015625 -62.71875 Z M 12.015625 -62.71875 "/></g></g></g><g fill="#ffffff" fill-opacity="1"><g transform="translate(200.629309, 253.887315)"><g><path d="M 9.296875 0 C 8.421875 0 7.703125 -0.046875 7.140625 -0.140625 C 6.578125 -0.234375 5.984375 -0.4375 5.359375 -0.75 C 4.347656 -1.25 3.515625 -2.046875 2.859375 -3.140625 C 2.203125 -4.234375 1.875 -5.316406 1.875 -6.390625 C 1.875 -6.828125 1.90625 -7.21875 1.96875 -7.5625 C 2.03125 -7.90625 2.15625 -8.265625 2.34375 -8.640625 C 2.53125 -9.015625 2.8125 -9.46875 3.1875 -10 C 3.5625 -10.53125 4.03125 -11.171875 4.59375 -11.921875 L 20.75 -32.953125 L 9.390625 -32.953125 C 7.453125 -33.015625 5.898438 -33.5625 4.734375 -34.59375 C 3.578125 -35.625 3 -36.988281 3 -38.6875 C 3 -40.4375 3.59375 -41.828125 4.78125 -42.859375 C 5.976562 -43.890625 7.515625 -44.40625 9.390625 -44.40625 L 31.171875 -44.40625 C 33.484375 -44.40625 35.34375 -43.8125 36.75 -42.625 C 38.164062 -41.4375 38.875 -39.84375 38.875 -37.84375 C 38.875 -36.644531 38.34375 -35.328125 37.28125 -33.890625 L 20.09375 -11.453125 L 32.953125 -11.453125 C 34.890625 -11.390625 36.421875 -10.84375 37.546875 -9.8125 C 38.679688 -8.78125 39.25 -7.421875 39.25 -5.734375 C 39.25 -4.035156 38.664062 -2.65625 37.5 -1.59375 C 36.34375 -0.53125 34.828125 0 32.953125 0 Z M 9.296875 0 "/></g></g></g><g fill="#ffffff" fill-opacity="1"><g transform="translate(238.27038, 253.887315)"><g><path d="M 5.828125 -7.703125 L 5.828125 -38.125 C 5.890625 -40.25 6.484375 -41.9375 7.609375 -43.1875 C 8.734375 -44.4375 10.203125 -45.0625 12.015625 -45.0625 C 13.890625 -45.0625 15.40625 -44.421875 16.5625 -43.140625 C 17.726562 -41.859375 18.3125 -40.1875 18.3125 -38.125 L 18.3125 -6.296875 C 18.25 -4.160156 17.648438 -2.46875 16.515625 -1.21875 C 15.390625 0.03125 13.921875 0.65625 12.109375 0.65625 C 10.234375 0.65625 8.71875 0.015625 7.5625 -1.265625 C 6.40625 -2.546875 5.828125 -4.222656 5.828125 -6.296875 Z M 12.015625 -62.71875 C 14.078125 -62.71875 15.828125 -62 17.265625 -60.5625 C 18.710938 -59.125 19.4375 -57.367188 19.4375 -55.296875 C 19.4375 -53.234375 18.695312 -51.46875 17.21875 -50 C 15.75 -48.53125 13.953125 -47.796875 11.828125 -47.796875 C 10.828125 -47.796875 9.875 -48 8.96875 -48.40625 C 8.0625 -48.8125 7.265625 -49.34375 6.578125 -50 C 5.890625 -50.65625 5.335938 -51.421875 4.921875 -52.296875 C 4.515625 -53.171875 4.3125 -54.109375 4.3125 -55.109375 C 4.3125 -57.304688 5.046875 -59.125 6.515625 -60.5625 C 7.992188 -62 9.828125 -62.71875 12.015625 -62.71875 Z M 12.015625 -62.71875 "/></g></g></g><g fill="#ffffff" fill-opacity="1"><g transform="translate(258.545533, 253.887315)"><g><path d="M 26 -45.34375 C 29.195312 -45.34375 32.203125 -44.734375 35.015625 -43.515625 C 37.835938 -42.296875 40.296875 -40.632812 42.390625 -38.53125 C 44.484375 -36.4375 46.140625 -33.984375 47.359375 -31.171875 C 48.585938 -28.359375 49.203125 -25.320312 49.203125 -22.0625 C 49.203125 -18.9375 48.585938 -15.976562 47.359375 -13.1875 C 46.140625 -10.40625 44.46875 -7.960938 42.34375 -5.859375 C 40.21875 -3.765625 37.742188 -2.109375 34.921875 -0.890625 C 32.109375 0.328125 29.101562 0.9375 25.90625 0.9375 C 22.71875 0.9375 19.695312 0.34375 16.84375 -0.84375 C 14 -2.03125 11.53125 -3.65625 9.4375 -5.71875 C 7.34375 -7.789062 5.664062 -10.203125 4.40625 -12.953125 C 3.15625 -15.710938 2.53125 -18.65625 2.53125 -21.78125 C 2.53125 -25.101562 3.140625 -28.203125 4.359375 -31.078125 C 5.585938 -33.953125 7.25 -36.4375 9.34375 -38.53125 C 11.4375 -40.632812 13.90625 -42.296875 16.75 -43.515625 C 19.601562 -44.734375 22.6875 -45.34375 26 -45.34375 Z M 26 -32.859375 C 24.5 -32.859375 23.09375 -32.578125 21.78125 -32.015625 C 20.46875 -31.453125 19.328125 -30.6875 18.359375 -29.71875 C 17.390625 -28.75 16.632812 -27.601562 16.09375 -26.28125 C 15.5625 -24.96875 15.296875 -23.53125 15.296875 -21.96875 C 15.296875 -20.59375 15.578125 -19.28125 16.140625 -18.03125 C 16.710938 -16.78125 17.484375 -15.679688 18.453125 -14.734375 C 19.421875 -13.796875 20.546875 -13.0625 21.828125 -12.53125 C 23.109375 -12 24.46875 -11.734375 25.90625 -11.734375 C 27.351562 -11.734375 28.71875 -12.015625 30 -12.578125 C 31.28125 -13.140625 32.40625 -13.890625 33.375 -14.828125 C 34.34375 -15.773438 35.109375 -16.890625 35.671875 -18.171875 C 36.242188 -19.453125 36.53125 -20.8125 36.53125 -22.25 C 36.53125 -23.75 36.242188 -25.140625 35.671875 -26.421875 C 35.109375 -27.710938 34.359375 -28.828125 33.421875 -29.765625 C 32.484375 -30.703125 31.375 -31.453125 30.09375 -32.015625 C 28.8125 -32.578125 27.445312 -32.859375 26 -32.859375 Z M 26 -32.859375 "/></g></g></g><g fill="#ffffff" fill-opacity="1"><g transform="translate(58.353557, 187.833753)"><g><path d="M 12.65625 -4.484375 L 11.703125 -1.890625 C 11.222656 -0.554688 10.394531 0.109375 9.21875 0.109375 C 8.613281 0.109375 8.113281 -0.046875 7.71875 -0.359375 C 7.320312 -0.679688 7 -1.1875 6.75 -1.875 L 5.78125 -4.484375 L 5.390625 -2.15625 C 5.273438 -1.445312 5 -0.890625 4.5625 -0.484375 C 4.132812 -0.0859375 3.601562 0.109375 2.96875 0.109375 C 2.25 0.109375 1.660156 -0.132812 1.203125 -0.625 C 0.753906 -1.113281 0.53125 -1.75 0.53125 -2.53125 C 0.53125 -2.632812 0.53125 -2.734375 0.53125 -2.828125 C 0.539062 -2.921875 0.554688 -3.019531 0.578125 -3.125 L 2.25 -12.515625 C 2.363281 -13.222656 2.628906 -13.773438 3.046875 -14.171875 C 3.460938 -14.578125 3.988281 -14.78125 4.625 -14.78125 C 5.132812 -14.78125 5.613281 -14.632812 6.0625 -14.34375 C 6.507812 -14.050781 6.835938 -13.65625 7.046875 -13.15625 L 9.21875 -8.296875 L 11.65625 -13.484375 C 11.851562 -13.867188 12.144531 -14.179688 12.53125 -14.421875 C 12.914062 -14.660156 13.335938 -14.78125 13.796875 -14.78125 C 14.085938 -14.78125 14.382812 -14.722656 14.6875 -14.609375 C 15 -14.492188 15.257812 -14.332031 15.46875 -14.125 C 15.675781 -13.914062 15.832031 -13.691406 15.9375 -13.453125 C 16.050781 -13.222656 16.144531 -12.910156 16.21875 -12.515625 L 17.890625 -3.0625 C 17.921875 -2.894531 17.941406 -2.742188 17.953125 -2.609375 C 17.960938 -2.484375 17.96875 -2.363281 17.96875 -2.25 C 17.96875 -1.90625 17.90625 -1.585938 17.78125 -1.296875 C 17.65625 -1.015625 17.488281 -0.769531 17.28125 -0.5625 C 17.070312 -0.363281 16.816406 -0.203125 16.515625 -0.078125 C 16.222656 0.046875 15.914062 0.109375 15.59375 0.109375 C 14.976562 0.109375 14.453125 -0.0546875 14.015625 -0.390625 C 13.578125 -0.734375 13.304688 -1.179688 13.203125 -1.734375 Z M 12.65625 -4.484375 "/></g></g></g><g fill="#ffffff" fill-opacity="1"><g transform="translate(76.852255, 187.833753)"><g><path d="M 4.109375 -6.140625 L 0.859375 -10.953125 C 0.535156 -11.410156 0.375 -11.90625 0.375 -12.4375 C 0.375 -12.75 0.4375 -13.046875 0.5625 -13.328125 C 0.6875 -13.617188 0.859375 -13.867188 1.078125 -14.078125 C 1.296875 -14.296875 1.546875 -14.46875 1.828125 -14.59375 C 2.117188 -14.71875 2.429688 -14.78125 2.765625 -14.78125 C 3.191406 -14.78125 3.585938 -14.679688 3.953125 -14.484375 C 4.328125 -14.285156 4.644531 -14.003906 4.90625 -13.640625 L 6.59375 -11.375 L 8.375 -13.703125 C 8.65625 -14.046875 8.972656 -14.3125 9.328125 -14.5 C 9.679688 -14.6875 10.046875 -14.78125 10.421875 -14.78125 C 10.742188 -14.78125 11.050781 -14.71875 11.34375 -14.59375 C 11.644531 -14.46875 11.90625 -14.296875 12.125 -14.078125 C 12.34375 -13.859375 12.515625 -13.601562 12.640625 -13.3125 C 12.773438 -13.019531 12.84375 -12.710938 12.84375 -12.390625 C 12.84375 -11.898438 12.695312 -11.429688 12.40625 -10.984375 L 9 -6.078125 L 9 -2.875 C 9 -2.425781 8.96875 -2.066406 8.90625 -1.796875 C 8.851562 -1.535156 8.742188 -1.28125 8.578125 -1.03125 C 8.367188 -0.675781 8.078125 -0.394531 7.703125 -0.1875 C 7.335938 0.0078125 6.957031 0.109375 6.5625 0.109375 C 6.164062 0.109375 5.78125 0.0078125 5.40625 -0.1875 C 5.039062 -0.394531 4.75 -0.671875 4.53125 -1.015625 C 4.375 -1.265625 4.265625 -1.519531 4.203125 -1.78125 C 4.140625 -2.039062 4.109375 -2.40625 4.109375 -2.875 Z M 4.109375 -6.140625 "/></g></g></g></svg>